# xmcd
#
# Track frame offsets: 
#        150
#        12432
#        33157
#        50110
#        62750
#        74182
#        90342
#        123060
#        144570
#        167530
#        185322
#        203650
#
# Disc length: 2884 seconds
#
# Revision: 1
# Processed by: cddbd v1.5.2PL0 Copyright (c) Steve Scherf et al.
# Submitted via: ExactAudioCopy v0.99pb1
#
DISCID=a20b420c
DTITLE=Warrant - Then And Now
DYEAR=2004
DGENRE=Rock
TTITLE0=DRFSR (Live)
TTITLE1=Family Picnic
TTITLE2=Downboys (Live)
TTITLE3=Feels Good
TTITLE4=Heaven
TTITLE5=Followed
TTITLE6=Cherry Pie (Live)
TTITLE7=Indian Giver
TTITLE8=Uncle Tom's Cabin (Live)
TTITLE9=Stronger Now
TTITLE10=Machine Gun (Live)
TTITLE11=A.Y.M.
EXTD=YEAR: 2004
EXTT0=
EXTT1=
EXTT2=
EXTT3=
EXTT4=
EXTT5=
EXTT6=
EXTT7=
EXTT8=
EXTT9=
EXTT10=
EXTT11=
PLAYORDER=
